HIERARCHY
ROOT Hips
{
	OFFSET 0.000000 0.000000 0.000000
	CHANNELS 6 Xposition Yposition Zposition Zrotation Yrotation Xrotation 
	JOINT LeftUpLeg_virtual
	{
		OFFSET 0.000000 0.000000 0.000000
		CHANNELS 3 Zrotation Yrotation Xrotation
		JOINT LeftUpLeg
		{
			OFFSET 10.205400 -3.823500 0.155100
			CHANNELS 3 Zrotation Yrotation Xrotation
			JOINT LeftLeg
			{
				OFFSET 0.708757 -12.982077 0.567790
				CHANNELS 3 Zrotation Yrotation Xrotation
				JOINT LeftFoot
				{
					OFFSET -0.708756 -10.717838 -2.184338
					CHANNELS 3 Zrotation Yrotation Xrotation
					JOINT LeftToeBase
					{
						OFFSET 0.108149 -7.191104 7.560241
						CHANNELS 3 Zrotation Yrotation Xrotation
						End Site
						{
							OFFSET 0.000000 0.000000 0.000000
						}
					}
				}
			}
		}
	}
	JOINT RightUpLeg_virtual
	{
		OFFSET 0.000000 0.000000 0.000000
		CHANNELS 3 Zrotation Yrotation Xrotation
		JOINT RightUpLeg
		{
			OFFSET -10.205400 -3.823500 0.005500
			CHANNELS 3 Zrotation Yrotation Xrotation
			JOINT RightLeg
			{
				OFFSET -0.708756 -12.982134 0.610632
				CHANNELS 3 Zrotation Yrotation Xrotation
				JOINT RightFoot
				{
					OFFSET 0.708754 -10.717769 -1.945823
					CHANNELS 3 Zrotation Yrotation Xrotation
					JOINT RightToeBase
					{
						OFFSET -0.108140 -7.191069 7.372968
						CHANNELS 3 Zrotation Yrotation Xrotation
						End Site
						{
							OFFSET 0.000000 0.000000 0.000000
						}
					}
				}
			}
		}
	}
	JOINT Spine_virtual
	{
		OFFSET 0.000000 0.000000 0.000000
		CHANNELS 3 Zrotation Yrotation Xrotation
		JOINT Spine
		{
			OFFSET 0.000000 6.876099 0.125700
			CHANNELS 3 Zrotation Yrotation Xrotation
			JOINT Spine1
			{
				OFFSET 0.000000 8.022060 0.146608
				CHANNELS 3 Zrotation Yrotation Xrotation
				JOINT Spine2
				{
					OFFSET 0.000000 9.168068 0.167552
					CHANNELS 3 Zrotation Yrotation Xrotation
					JOINT Neck_virtual
					{
						OFFSET 0.000000 0.000000 0.000000
						CHANNELS 3 Zrotation Yrotation Xrotation
						JOINT Neck
						{
							OFFSET 0.000000 10.314075 0.188496
							CHANNELS 3 Zrotation Yrotation Xrotation
							JOINT Head
							{
								OFFSET 0.000000 7.643700 -2.377400
								CHANNELS 3 Zrotation Yrotation Xrotation
								End Site
								{
									OFFSET 0.000000 0.000000 0.000000
								}
							}
						}
					}
					JOINT LeftShoulder_virtual
					{
						OFFSET 0.000000 0.000000 0.000000
						CHANNELS 3 Zrotation Yrotation Xrotation
						JOINT LeftShoulder
						{
							OFFSET 4.392200 8.824978 0.174984
							CHANNELS 3 Zrotation Yrotation Xrotation
							JOINT LeftArm
							{
								OFFSET 8.771219 -2.981674 -0.026999
								CHANNELS 3 Zrotation Yrotation Xrotation
								JOINT LeftForeArm
								{
									OFFSET 8.512804 0.000000 -0.000000
									CHANNELS 3 Zrotation Yrotation Xrotation
									JOINT LeftHand
									{
										OFFSET 18.484802 0.000000 -0.000000
										CHANNELS 3 Zrotation Yrotation Xrotation
										End Site
										{
											OFFSET 0.000000 0.000000 0.000000
										}
									}
								}
							}
						}
					}
					JOINT RightShoulder_virtual
					{
						OFFSET 0.000000 0.000000 0.000000
						CHANNELS 3 Zrotation Yrotation Xrotation
						JOINT RightShoulder
						{
							OFFSET -4.392200 8.824993 0.141379
							CHANNELS 3 Zrotation Yrotation Xrotation
							JOINT RightArm
							{
								OFFSET -8.771282 -2.981682 -0.094208
								CHANNELS 3 Zrotation Yrotation Xrotation
								JOINT RightForeArm
								{
									OFFSET -8.494598 0.000000 0.000000
									CHANNELS 3 Zrotation Yrotation Xrotation
									JOINT RightHand
									{
										OFFSET -18.483803 0.000000 0.000001
										CHANNELS 3 Zrotation Yrotation Xrotation
										End Site
										{
											OFFSET 0.000000 0.000000 0.000000
										}
									}
								}
							}
						}
					}
				}
			}
		}
	}
}
MOTION
Frames: 10
Frame Time: 0.033333
-3.021345 24.256821 5.558414 -179.996016 -5.551285 179.993953 2.871974 -7.282808 -3.767530 -10.870749 2.354605 -93.835297 17.784259 1.815236 68.528709 -5.370332 -3.333154 14.159069 0.000000 0.000000 0.000000 3.786876 -1.351721 -0.998477 7.744621 -13.156389 -78.861897 -2.474254 -0.997895 79.421494 -1.550981 5.606697 5.114817 0.000000 0.000000 0.000000 2.035777 -0.403869 -10.294973 2.087920 1.832926 -6.694833 -0.076584 -3.764828 7.672588 -0.005146 -0.000408 -0.023335 -0.779134 -2.264404 12.325992 -0.492385 -4.209828 27.098898 0.000000 0.000000 0.000000 1.359937 -1.782453 8.050677 -14.435475 -8.134129 -0.367704 -48.758398 -12.181279 -4.154256 165.396132 -79.090319 -155.019244 0.000000 0.000000 0.000000 -2.608764 -0.444877 7.352527 26.522562 9.394966 2.043681 46.050925 4.858866 -6.788891 -175.319645 59.371515 174.855643 0.000000 0.000000 0.000000 
-3.007337 24.228134 5.374803 179.979624 -5.670796 179.995921 2.838021 -7.466425 -3.357163 -9.684560 3.407362 -92.727447 16.895316 1.021736 71.698552 -5.598208 -3.029427 13.532311 0.000000 0.000000 0.000000 3.779256 -1.606648 -0.553197 6.223436 -14.539847 -79.647690 -1.927911 -0.685286 80.978026 -1.634515 5.944278 4.236526 0.000000 0.000000 0.000000 2.012047 -0.650619 -10.385899 1.873584 2.094384 -6.882432 -0.093811 -3.725879 7.577905 0.014648 0.047641 0.006271 -0.813990 -2.258424 12.240322 -0.523009 -4.365268 27.276135 0.000000 0.000000 0.000000 1.320811 -1.795450 7.953510 -14.376831 -8.144223 -0.518266 -48.871971 -11.616722 -4.301573 164.380428 -78.929666 -153.856459 0.000000 0.000000 0.000000 -2.641426 -0.555921 7.323884 26.530606 9.253965 1.933204 46.016757 4.909808 -6.396251 -175.736150 59.296212 174.561002 0.000000 0.000000 0.000000 
-3.011764 24.226385 5.109502 -179.992451 -5.753986 -179.990593 2.854606 -7.603975 -2.954807 -8.700695 4.294072 -91.481109 16.028248 0.120836 75.723794 -5.856544 -2.758390 12.825637 0.000000 0.000000 0.000000 3.803868 -1.835642 -0.102123 5.016961 -15.634658 -80.557362 -1.404473 -0.431692 83.277437 -1.846329 6.278303 3.028541 0.000000 0.000000 0.000000 1.979561 -0.694645 -10.566572 1.677588 2.283761 -7.038828 -0.110146 -3.780290 7.476252 -0.013801 -0.010294 0.015722 -0.822142 -2.253034 12.157902 -0.581463 -4.566510 27.431355 0.000000 0.000000 0.000000 1.341791 -1.702281 7.883616 -14.317640 -8.250772 -0.648298 -49.080035 -11.098075 -4.431649 163.419803 -78.762094 -152.607559 0.000000 0.000000 0.000000 -2.633034 -0.524087 7.226739 26.472854 9.127034 1.995410 46.058875 4.922631 -5.822897 -175.731191 59.299156 174.687716 0.000000 0.000000 0.000000 
-3.045083 24.253399 4.809477 179.987178 -5.826190 179.986795 2.779285 -7.709796 -2.565025 -7.935481 4.945432 -90.213145 15.182686 -0.723457 80.414576 -6.087485 -2.570331 11.965110 0.000000 0.000000 0.000000 3.768688 -2.150185 0.381771 4.187688 -16.489957 -81.538136 -1.000225 -0.319154 86.538681 -2.225294 6.633624 1.568154 0.000000 0.000000 0.000000 1.943049 -0.864942 -10.746120 1.488950 2.532434 -7.124587 -0.116949 -3.771236 7.389493 0.007414 -0.004096 0.003670 -0.841466 -2.235909 12.080131 -0.612090 -4.772596 27.551588 0.000000 0.000000 0.000000 1.288283 -1.766605 7.753656 -14.254966 -8.269112 -0.694557 -49.332694 -10.606893 -4.576470 162.319309 -78.623619 -151.489948 0.000000 0.000000 0.000000 -2.650773 -0.552635 7.147732 26.385108 8.953021 1.995698 46.235289 4.903604 -5.217755 -175.879611 59.489151 174.626067 0.000000 0.000000 0.000000 
-3.116355 24.309145 4.518853 179.975690 -5.833086 -179.955773 2.715807 -7.704018 -2.226637 -7.429442 5.396256 -89.166699 14.327910 -1.519699 85.482953 -6.229541 -2.526227 10.898193 0.000000 0.000000 0.000000 3.710591 -2.327392 0.760192 3.878724 -17.072189 -82.659646 -0.750587 -0.292112 90.468731 -2.735951 6.892022 0.008324 0.000000 0.000000 0.000000 1.924732 -0.973761 -10.876941 1.343190 2.789978 -7.172545 -0.116816 -3.741463 7.282286 0.006186 0.015682 -0.000188 -0.864314 -2.222364 11.989031 -0.661065 -4.999973 27.617264 0.000000 0.000000 0.000000 1.257927 -1.729815 7.674819 -14.207675 -8.371734 -0.779957 -49.662172 -10.221614 -4.763627 161.606620 -78.586995 -150.669219 0.000000 0.000000 0.000000 -2.666698 -0.533162 7.075935 26.313816 8.840381 2.042999 46.401843 4.949223 -4.736610 -175.988703 59.797794 174.566289 0.000000 0.000000 0.000000 
-3.213725 24.397951 4.299901 179.997410 -5.934964 -179.985525 2.706918 -7.712460 -1.936722 -7.074453 5.658820 -88.305685 13.511276 -2.209474 90.596934 -6.171686 -2.605095 9.556946 0.000000 0.000000 0.000000 3.668323 -2.516560 1.158691 3.944281 -17.409462 -83.893602 -0.786933 -0.470926 94.576974 -3.318653 7.110416 -1.343461 0.000000 0.000000 0.000000 1.944240 -0.988017 -10.814751 1.224899 2.980888 -7.165668 -0.146022 -3.738384 7.185619 -0.026683 0.007625 0.018157 -0.833737 -2.242866 11.773741 -0.707553 -5.245451 27.615464 0.000000 0.000000 0.000000 1.273287 -1.762834 7.474133 -14.124357 -8.598033 -0.734622 -49.920251 -10.002967 -4.912262 160.296193 -78.542551 -149.292253 0.000000 0.000000 0.000000 -2.647201 -0.627657 6.933746 26.203744 8.802891 2.070292 46.502605 5.091173 -4.372695 -176.009276 60.174165 174.544897 0.000000 0.000000 0.000000 
-3.301558 24.507662 4.174021 -179.999062 -6.001358 -179.985989 2.658319 -7.514767 -1.636635 -6.782074 5.797833 -87.723507 12.872344 -2.786604 95.564202 -6.001968 -2.892440 8.014564 0.000000 0.000000 0.000000 3.647287 -2.536409 1.451548 4.227530 -17.429890 -85.005051 -1.046710 -0.844913 98.469970 -3.909034 7.243177 -2.242817 0.000000 0.000000 0.000000 1.958274 -0.879749 -10.605439 1.130018 3.120036 -7.102389 -0.144090 -3.735960 7.067512 -0.009486 0.007817 0.020389 -0.862538 -2.228795 11.569178 -0.740575 -5.503956 27.560186 0.000000 0.000000 0.000000 1.228263 -1.743011 7.353433 -14.021359 -8.850106 -0.785303 -50.146084 -9.956339 -5.031570 159.614295 -78.685541 -148.572993 0.000000 0.000000 0.000000 -2.689136 -0.549254 6.732483 26.088106 8.649995 2.201879 46.495669 5.328581 -4.296265 -175.977529 60.564285 174.546440 0.000000 0.000000 0.000000 
-3.388663 24.622177 4.101942 179.990361 -6.037281 -179.984091 2.629711 -7.289998 -1.428356 -6.588083 5.848088 -87.399975 12.115935 -3.311297 100.093683 -5.631202 -3.051391 6.350212 0.000000 0.000000 0.000000 3.606509 -2.477897 1.567994 4.883726 -17.162408 -86.037707 -1.400166 -1.068347 102.005084 -4.136387 7.746131 -2.450574 0.000000 0.000000 0.000000 1.977836 -0.767867 -10.302596 1.042575 3.153930 -6.964688 -0.150999 -3.781298 6.925761 0.015414 -0.033729 0.016984 -0.907001 -2.183994 11.356999 -0.798630 -5.767876 27.483821 0.000000 0.000000 0.000000 1.185673 -1.663322 7.180354 -13.871454 -9.079089 -0.808793 -50.271968 -10.042143 -4.934135 158.551517 -78.786075 -147.537564 0.000000 0.000000 0.000000 -2.727892 -0.457741 6.598097 25.987616 8.668684 2.280915 46.419516 5.628344 -4.210577 -175.771954 60.843127 174.675791 0.000000 0.000000 0.000000 
-3.457193 24.728676 4.045939 179.964201 -5.993792 -179.956442 2.562576 -7.053704 -1.333760 -6.354233 5.931368 -87.257880 11.587798 -3.711601 104.117860 -5.295628 -3.333729 4.790626 0.000000 0.000000 0.000000 3.504286 -2.391954 1.470887 5.497130 -16.646791 -86.864898 -1.747709 -1.398346 104.780942 -4.091785 8.481611 -2.077868 0.000000 0.000000 0.000000 1.944612 -0.635872 -10.068923 0.945103 3.193422 -6.737117 -0.155937 -3.748035 6.821392 0.011254 0.014545 0.026107 -0.855259 -2.213898 11.177649 -0.854655 -6.032731 27.427531 0.000000 0.000000 0.000000 1.224141 -1.722457 7.049275 -13.672741 -9.479425 -0.818335 -50.316480 -10.192654 -4.924418 158.235334 -78.900938 -147.276828 0.000000 0.000000 0.000000 -2.708504 -0.599105 6.474300 25.935760 8.658908 2.247782 46.355787 5.769973 -4.233905 -175.978485 61.053715 174.397816 0.000000 0.000000 0.000000 
-3.500160 24.809273 3.979636 179.955144 -6.004319 -179.955185 2.489125 -6.929213 -1.384573 -6.061907 5.989301 -87.120402 11.152253 -4.009337 107.515012 -5.058942 -3.631729 3.544822 0.000000 0.000000 0.000000 3.397938 -2.431856 1.308292 5.927946 -15.849036 -87.258269 -2.336068 -1.662922 106.604035 -4.214273 9.008135 -1.489129 0.000000 0.000000 0.000000 1.870470 -0.617658 -9.991890 0.874621 3.121640 -6.429500 -0.131766 -3.774304 6.737605 0.013091 0.000081 0.027628 -0.819333 -2.210398 11.033480 -0.929015 -6.276662 27.381047 0.000000 0.000000 0.000000 1.246597 -1.726099 6.912213 -13.481034 -9.825622 -0.711574 -50.334318 -10.570372 -4.911541 157.936991 -78.989082 -147.095828 0.000000 0.000000 0.000000 -2.676864 -0.496180 6.305084 25.946972 8.551291 2.302380 46.255783 5.867366 -3.997673 -175.776038 61.136668 174.529666 0.000000 0.000000 0.000000 
